<svg xmlns="http://www.w3.org/2000/svg" viewBox="0 0 256 256"><rect width="256" height="256" fill="none"/><path d="M216,120H40a8,8,0,0,0-8,8v64a8,8,0,0,0,8,8H216a8,8,0,0,0,8-8V128A8,8,0,0,0,216,120Z" opacity="0.2"/><path d="M216,112H40a16,16,0,0,0-16,16v64a16,16,0,0,0,16,16H216a16,16,0,0,0,16-16V128A16,16,0,0,0,216,112Zm0,80H40V128H216v64Z"/><rect x="32" y="72" width="192" height="40" rx="16"/><path d="M168,72V48a16,16,0,0,0-16-16H104A16,16,0,0,0,88,48V72"/><line x1="128" x2="128" y1="208" y2="224"/><line x1="88" x2="88" y1="208" y2="224"/><line x1="168" x2="168" y1="208" y2="224"/><circle cx="84" cy="160" r="12"/><circle cx="172" cy="160" r="12"/></svg>